<mxfile host="app.diagrams.net" modified="2022-11-29T13:26:31.982Z" agent="5.0 (Windows NT 10.0; Win64; x64) AppleWebKit/537.36 (KHTML, like Gecko) Chrome/107.0.0.0 Safari/537.36" etag="TvxnUAXhPahriRcUQAl6" version="20.6.0" type="github">
  <diagram name="Page-1" id="822b0af5-4adb-64df-f703-e8dfc1f81529">
    <mxGraphModel dx="1384" dy="724" grid="1" gridSize="10" guides="1" tooltips="1" connect="1" arrows="1" fold="1" page="1" pageScale="1" pageWidth="1100" pageHeight="850" background="none" math="0" shadow="0">
      <root>
        <mxCell id="0" />
        <mxCell id="1" parent="0" />
        <mxCell id="SWm3GmHfTayeALuVuFPm-12" style="edgeStyle=none;rounded=0;orthogonalLoop=1;jettySize=auto;html=1;endArrow=none;endFill=0;" edge="1" parent="1" source="SWm3GmHfTayeALuVuFPm-1" target="SWm3GmHfTayeALuVuFPm-3">
          <mxGeometry relative="1" as="geometry" />
        </mxCell>
        <mxCell id="SWm3GmHfTayeALuVuFPm-1" value="" style="verticalLabelPosition=bottom;sketch=0;aspect=fixed;html=1;verticalAlign=top;strokeColor=none;align=center;outlineConnect=0;shape=mxgraph.citrix.firewall;" vertex="1" parent="1">
          <mxGeometry x="473" y="330" width="75" height="93" as="geometry" />
        </mxCell>
        <mxCell id="SWm3GmHfTayeALuVuFPm-10" style="edgeStyle=none;rounded=0;orthogonalLoop=1;jettySize=auto;html=1;endArrow=none;endFill=0;" edge="1" parent="1" source="SWm3GmHfTayeALuVuFPm-2" target="SWm3GmHfTayeALuVuFPm-3">
          <mxGeometry relative="1" as="geometry" />
        </mxCell>
        <mxCell id="SWm3GmHfTayeALuVuFPm-2" value="" style="verticalLabelPosition=bottom;sketch=0;aspect=fixed;html=1;verticalAlign=top;strokeColor=none;align=center;outlineConnect=0;shape=mxgraph.citrix.desktop;" vertex="1" parent="1">
          <mxGeometry x="610" y="680" width="89" height="98" as="geometry" />
        </mxCell>
        <mxCell id="SWm3GmHfTayeALuVuFPm-3" value="" style="verticalLabelPosition=bottom;sketch=0;aspect=fixed;html=1;verticalAlign=top;strokeColor=none;align=center;outlineConnect=0;shape=mxgraph.citrix.switch;" vertex="1" parent="1">
          <mxGeometry x="478.5" y="544.25" width="92" height="41.5" as="geometry" />
        </mxCell>
        <mxCell id="SWm3GmHfTayeALuVuFPm-11" style="edgeStyle=none;rounded=0;orthogonalLoop=1;jettySize=auto;html=1;endArrow=none;endFill=0;" edge="1" parent="1" source="SWm3GmHfTayeALuVuFPm-4" target="SWm3GmHfTayeALuVuFPm-1">
          <mxGeometry relative="1" as="geometry" />
        </mxCell>
        <mxCell id="SWm3GmHfTayeALuVuFPm-4" value="" style="verticalLabelPosition=bottom;sketch=0;aspect=fixed;html=1;verticalAlign=top;strokeColor=none;align=center;outlineConnect=0;shape=mxgraph.citrix.web_server;" vertex="1" parent="1">
          <mxGeometry x="821.75" y="330" width="76.5" height="90" as="geometry" />
        </mxCell>
        <mxCell id="SWm3GmHfTayeALuVuFPm-9" style="rounded=0;orthogonalLoop=1;jettySize=auto;html=1;endArrow=none;endFill=0;" edge="1" parent="1" source="SWm3GmHfTayeALuVuFPm-5">
          <mxGeometry relative="1" as="geometry">
            <mxPoint x="500" y="580" as="targetPoint" />
          </mxGeometry>
        </mxCell>
        <mxCell id="SWm3GmHfTayeALuVuFPm-5" value="" style="verticalLabelPosition=bottom;sketch=0;aspect=fixed;html=1;verticalAlign=top;strokeColor=none;align=center;outlineConnect=0;shape=mxgraph.citrix.ftp_server;" vertex="1" parent="1">
          <mxGeometry x="350" y="670" width="71" height="97" as="geometry" />
        </mxCell>
        <mxCell id="SWm3GmHfTayeALuVuFPm-13" value="Serveur APACHE&lt;br&gt;IP:&amp;nbsp;100.113.16.83" style="text;html=1;strokeColor=none;fillColor=none;align=center;verticalAlign=middle;whiteSpace=wrap;rounded=0;" vertex="1" parent="1">
          <mxGeometry x="800" y="425" width="120" height="30" as="geometry" />
        </mxCell>
        <mxCell id="SWm3GmHfTayeALuVuFPm-14" value="Serveur Windows&lt;br&gt;IP:&amp;nbsp;100.105.24.85" style="text;html=1;strokeColor=none;fillColor=none;align=center;verticalAlign=middle;whiteSpace=wrap;rounded=0;" vertex="1" parent="1">
          <mxGeometry x="340" y="768" width="110" height="30" as="geometry" />
        </mxCell>
      </root>
    </mxGraphModel>
  </diagram>
</mxfile>
